424865418175e7b42e77d4482fed91f1 *tests/data/fate/generic-tags-remux-asf.asf
20596 tests/data/fate/generic-tags-remux-asf.asf
#extradata 0:        4, 0x00020001
#tb 0: 1/1000
#media_type 0: audio
#codec_id 0: wmav1
#sample_rate 0: 44100
#channel_layout_name 0: mono
0,          0,          0,       46,      743, 0xe9ea3f8d
0,         46,         46,       46,      743, 0xc5e238af
0,         92,         92,       46,      743, 0xec461f39
0,        139,        139,       46,      743, 0x303817f2
0,        185,        185,       46,      743, 0x2fa031c8
0,        232,        232,       46,      743, 0x7c1e0db6
0,        278,        278,       46,      743, 0xabfa162f
0,        325,        325,       46,      743, 0x59311cf2
0,        371,        371,       46,      743, 0x25734264
0,        418,        418,       46,      743, 0xa47419ef
0,        464,        464,       46,      743, 0xdd8e3194
0,        510,        510,       46,      743, 0x89b62039
0,        557,        557,       46,      743, 0x7a933b49
0,        603,        603,       46,      743, 0x350215bf
0,        650,        650,       46,      743, 0xe4a238e3
0,        696,        696,       46,      743, 0x667e399c
0,        743,        743,       46,      743, 0x3e11365d
0,        789,        789,       46,      743, 0x203f3295
0,        835,        835,       46,      743, 0x49d92bf3
0,        882,        882,       46,      743, 0x5dd71eea
0,        928,        928,       46,      743, 0xdf740eee
0,        975,        975,       46,      743, 0x41c84afe
[FORMAT]
TAG:publisher=M83 Recording Inc
TAG:album_artist=M83
TAG:composer=Anthony Gonzalez
TAG:album=Hurry Up, We're Dreaming
TAG:artist=M83
TAG:comment=I love M83
TAG:copyright=2011 M83 Recording Inc
TAG:date=2011-10-17
TAG:disc=1
TAG:disc_subtitle=Hurry Up
TAG:encoded_by=Tau
TAG:filename=Intro.mp3
TAG:genre=Electronic
TAG:language=eng
TAG:performer=Anthony Gonzalez
TAG:title=Intro
TAG:track=1/11
[/FORMAT]
